<svg width="648" height="946" viewBox="0 0 648 946" fill="none" xmlns="http://www.w3.org/2000/svg">
<path fill-rule="evenodd" clip-rule="evenodd" d="M12.9549 125.722C7.74662 119.17 12.4129 109.5 20.7833 109.5H626.323C634.755 109.5 639.402 119.294 634.069 125.825L334.699 492.441C333.256 494.208 332.46 496.416 332.445 498.698L329.657 909.932C329.619 915.481 334.107 920 339.656 920H452.5C458.023 920 462.5 924.477 462.5 930V936C462.5 941.523 458.023 946 452.5 946H180.5C174.977 946 170.5 941.523 170.5 936V930C170.5 924.477 174.977 920 180.5 920H293.655C299.152 920 303.618 915.564 303.655 910.068L306.445 498.527C306.461 496.243 305.695 494.024 304.274 492.236L12.9549 125.722ZM311.913 460.062C315.883 465.057 323.452 465.107 327.487 460.165L579.27 151.825C584.603 145.294 579.957 135.5 571.525 135.5H74.6616C66.2912 135.5 61.625 145.17 66.8332 151.722L311.913 460.062Z" fill="white"/>
<path fill-rule="evenodd" clip-rule="evenodd" d="M299.436 374.413C295.845 376.986 290.847 376.161 288.273 372.57L37.0933 22.0752C34.5196 18.4839 35.3446 13.4862 38.9359 10.9125L47.0641 5.08747C50.6554 2.51379 55.6531 3.33874 58.2268 6.93003L309.407 357.425C311.98 361.016 311.155 366.014 307.564 368.587L299.436 374.413Z" fill="white"/>
</svg>
